<?xml version="1.0" encoding="utf-8"?>
<svg width="56px" height="56px" viewbox="0 0 56 56" version="1.1" xmlns:xlink="http://www.w3.org/1999/xlink" xmlns="http://www.w3.org/2000/svg">
  <defs>
    <path d="M0 0L56 0L56 56L0 56L0 0Z" id="path_1" />
    <clipPath id="mask_1">
      <use xlink:href="#path_1" />
    </clipPath>
  </defs>
  <g id="avatar">
    <path d="M0 0L56 0L56 56L0 56L0 0Z" id="Background" fill="none" fill-rule="evenodd" stroke="none" />
    <g clip-path="url(#mask_1)">
      <path d="M12.4091 3.81818C7.6645 3.81818 3.8182 7.6645 3.8182 12.4091C3.8182 17.1537 7.6645 21 12.4091 21C17.1537 21 21 17.1537 21 12.4091C21 7.6645 17.1537 3.81818 12.4091 3.81818L12.4091 3.81818ZM0 12.4091C0 5.55574 5.5557 0 12.4091 0C19.2624 0 24.8182 5.55574 24.8182 12.4091C24.8182 19.2624 19.2624 24.8182 12.4091 24.8182C5.5557 24.8182 0 19.2624 0 12.4091L0 12.4091Z" transform="translate(16 3)" id="Shape" fill="#FFFFFF" fill-rule="evenodd" stroke="none" />
      <path d="M9.0158 10.3421C5.8384 14.4719 3.8182 20.2585 3.8182 26.7273C3.8182 27.7816 2.96345 28.6364 1.90909 28.6364C0.85473 28.6364 0 27.7816 0 26.7273C0 19.4888 2.25616 12.8663 5.9897 8.0138C9.7246 3.1594 15.0158 0 21 0C26.9842 0 32.2754 3.1594 36.0103 8.0138C39.7438 12.8663 42 19.4888 42 26.7273C42 27.7816 41.1453 28.6364 40.0909 28.6364C39.0365 28.6364 38.1818 27.7816 38.1818 26.7273C38.1818 20.2585 36.1616 14.4719 32.9842 10.3421C29.8082 6.2142 25.554 3.8182 21 3.8182C16.446 3.8182 12.1917 6.2142 9.0158 10.3421L9.0158 10.3421Z" transform="translate(7 24)" id="Shape" fill="#FFFFFF" fill-rule="evenodd" stroke="none" />
    </g>
  </g>
</svg>