<?xml version="1.0" encoding="utf-8"?>
<!-- Generator: Adobe Illustrator 26.5.0, SVG Export Plug-In . SVG Version: 6.00 Build 0)  -->
<svg version="1.1" id="Layer_2_00000150076578758811893760000000246313750826931368_"
	 xmlns="http://www.w3.org/2000/svg" xmlns:xlink="http://www.w3.org/1999/xlink" x="0px" y="0px" viewBox="0 0 626.2 144.9"
	 style="enable-background:new 0 0 626.2 144.9;" xml:space="preserve">
<style type="text/css">
	.st0{fill:#FFFFFF;}
</style>
<g id="Layer_1-2">
	<g>
		<path class="st0" d="M151.7,140.3h-1.6l-2.8-9.2c-0.1-0.4-0.3-0.9-0.4-1.5s-0.2-1-0.2-1.1c-0.1,0.8-0.4,1.7-0.7,2.7l-2.7,9.1h-1.6
			l-3.6-13.7h1.7l2.2,8.5c0.3,1.2,0.5,2.3,0.7,3.2c0.2-1.1,0.4-2.3,0.8-3.4l2.5-8.3h1.7l2.6,8.4c0.3,1,0.6,2.1,0.8,3.3
			c0.1-0.9,0.3-2,0.7-3.2l2.2-8.5h1.7L151.7,140.3L151.7,140.3z"/>
		<path class="st0" d="M165.2,135.1c0,1.7-0.4,3-1.3,3.9s-2,1.4-3.5,1.4c-0.9,0-1.7-0.2-2.4-0.6c-0.7-0.4-1.3-1.1-1.6-1.9
			s-0.6-1.8-0.6-2.8c0-1.7,0.4-3,1.3-3.9c0.8-0.9,2-1.4,3.5-1.4s2.6,0.5,3.4,1.4S165.2,133.5,165.2,135.1L165.2,135.1z M157.3,135.1
			c0,1.3,0.3,2.3,0.8,3s1.3,1,2.3,1s1.8-0.3,2.3-1c0.5-0.7,0.8-1.7,0.8-3s-0.3-2.3-0.8-3s-1.3-1-2.3-1s-1.8,0.3-2.3,1
			S157.3,133.8,157.3,135.1L157.3,135.1z"/>
		<path class="st0" d="M172,129.8c0.5,0,0.9,0,1.2,0.1l-0.2,1.4c-0.4-0.1-0.8-0.1-1.1-0.1c-0.8,0-1.5,0.3-2.1,1
			c-0.6,0.7-0.9,1.5-0.9,2.5v5.5h-1.6V130h1.3l0.2,1.9h0.1c0.4-0.7,0.8-1.2,1.4-1.6C170.8,130,171.4,129.8,172,129.8L172,129.8z"/>
		<path class="st0" d="M176.3,140.3h-1.6v-14.6h1.6V140.3z"/>
		<path class="st0" d="M186.1,138.9L186.1,138.9c-0.8,1-1.9,1.6-3.3,1.6c-1.4,0-2.4-0.5-3.1-1.4s-1.1-2.2-1.1-3.9s0.4-3,1.1-3.9
			s1.8-1.4,3.1-1.4s2.5,0.5,3.2,1.5h0.1l-0.1-0.7l0-0.7v-4.2h1.6v14.6h-1.3L186.1,138.9L186.1,138.9z M182.9,139.2
			c1.1,0,1.8-0.3,2.3-0.9s0.7-1.5,0.7-2.8v-0.3c0-1.5-0.2-2.5-0.7-3.1c-0.5-0.6-1.3-0.9-2.3-0.9c-0.9,0-1.6,0.4-2.1,1.1
			c-0.5,0.7-0.7,1.7-0.7,3s0.2,2.3,0.7,3S182,139.2,182.9,139.2L182.9,139.2z"/>
		<path class="st0" d="M198.8,140.3l-1.9-6c-0.1-0.4-0.3-1.2-0.7-2.5h-0.1c-0.2,1.1-0.5,1.9-0.7,2.5l-1.9,6h-1.8L189,130h1.6
			c0.7,2.6,1.2,4.6,1.5,5.9c0.4,1.4,0.6,2.3,0.6,2.7h0.1c0.1-0.4,0.2-0.8,0.3-1.4s0.3-1,0.4-1.4l1.9-5.9h1.7l1.8,5.9
			c0.4,1.1,0.6,2,0.7,2.7h0.1c0-0.2,0.1-0.6,0.2-1c0.1-0.5,0.8-3,2-7.6h1.6l-2.8,10.3L198.8,140.3L198.8,140.3z"/>
		<path class="st0" d="M204.9,127.2c0-0.4,0.1-0.6,0.3-0.8c0.2-0.2,0.4-0.2,0.7-0.2s0.5,0.1,0.6,0.2s0.3,0.4,0.3,0.8
			s-0.1,0.6-0.3,0.8c-0.2,0.2-0.4,0.3-0.6,0.3c-0.3,0-0.5-0.1-0.7-0.3C205,127.8,204.9,127.6,204.9,127.2z M206.6,140.3H205V130h1.6
			V140.3z"/>
		<path class="st0" d="M216.3,138.9L216.3,138.9c-0.8,1-1.9,1.6-3.3,1.6c-1.4,0-2.4-0.5-3.1-1.4s-1.1-2.2-1.1-3.9s0.4-3,1.1-3.9
			s1.8-1.4,3.1-1.4s2.5,0.5,3.2,1.5h0.1l-0.1-0.7l0-0.7v-4.2h1.6v14.6h-1.3L216.3,138.9L216.3,138.9z M213.1,139.2
			c1.1,0,1.8-0.3,2.3-0.9s0.7-1.5,0.7-2.8v-0.3c0-1.5-0.2-2.5-0.7-3.1c-0.5-0.6-1.3-0.9-2.3-0.9c-0.9,0-1.6,0.4-2.1,1.1
			c-0.5,0.7-0.7,1.7-0.7,3s0.2,2.3,0.7,3S212.2,139.2,213.1,139.2L213.1,139.2z"/>
		<path class="st0" d="M224.8,140.5c-1.5,0-2.7-0.5-3.6-1.4s-1.3-2.2-1.3-3.9s0.4-3,1.2-3.9c0.8-1,1.9-1.5,3.3-1.5
			c1.3,0,2.3,0.4,3.1,1.3s1.1,2,1.1,3.4v1h-7.1c0,1.2,0.3,2.1,0.9,2.8c0.6,0.6,1.4,0.9,2.4,0.9c1.1,0,2.2-0.2,3.3-0.7v1.4
			c-0.6,0.2-1.1,0.4-1.6,0.5S225.5,140.5,224.8,140.5L224.8,140.5z M224.4,131.1c-0.8,0-1.5,0.3-2,0.8c-0.5,0.5-0.8,1.3-0.9,2.2h5.4
			c0-1-0.2-1.7-0.7-2.3C225.8,131.4,225.2,131.1,224.4,131.1L224.4,131.1z"/>
		<path class="st0" d="M247.4,133.4c0,2.2-0.6,3.9-1.7,5.2c-1.1,1.3-2.6,1.9-4.6,1.9s-3.6-0.6-4.7-1.9c-1.1-1.2-1.6-3-1.6-5.2
			s0.6-4,1.6-5.2c1.1-1.2,2.7-1.8,4.7-1.8s3.5,0.6,4.6,1.9C246.8,129.5,247.4,131.2,247.4,133.4L247.4,133.4z M236.5,133.4
			c0,1.9,0.4,3.3,1.2,4.2c0.8,1,1.9,1.4,3.4,1.4s2.7-0.5,3.4-1.4c0.8-1,1.2-2.4,1.2-4.2s-0.4-3.2-1.2-4.2c-0.8-1-1.9-1.4-3.4-1.4
			s-2.7,0.5-3.5,1.4C236.9,130.2,236.4,131.6,236.5,133.4L236.5,133.4z"/>
		<path class="st0" d="M251.3,140.3h-1.6v-14.6h1.6V140.3z"/>
		<path class="st0" d="M252.7,130h1.7l2.2,5.9c0.5,1.3,0.8,2.3,0.9,2.9h0.1c0.1-0.3,0.2-0.9,0.5-1.6s1.1-3.1,2.5-7.1h1.7l-4.4,11.7
			c-0.4,1.2-1,2-1.5,2.5c-0.6,0.5-1.3,0.7-2.1,0.7c-0.5,0-0.9-0.1-1.4-0.2v-1.2c0.3,0.1,0.7,0.1,1.1,0.1c1.1,0,1.8-0.6,2.3-1.8
			l0.6-1.5L252.7,130L252.7,130z"/>
		<path class="st0" d="M276.8,140.3v-6.7c0-0.8-0.2-1.4-0.5-1.9c-0.4-0.4-0.9-0.6-1.6-0.6c-1,0-1.7,0.3-2.1,0.8
			c-0.5,0.6-0.7,1.4-0.7,2.6v5.7h-1.6v-6.7c0-0.8-0.2-1.4-0.5-1.9s-0.9-0.6-1.6-0.6c-1,0-1.7,0.3-2.1,0.9c-0.5,0.6-0.7,1.5-0.7,2.9
			v5.4h-1.6V130h1.3l0.2,1.4h0.1c0.3-0.5,0.7-0.9,1.2-1.2s1.1-0.4,1.8-0.4c1.6,0,2.7,0.6,3.1,1.8h0.1c0.3-0.5,0.8-1,1.3-1.3
			c0.6-0.3,1.2-0.5,2-0.5c1.2,0,2,0.3,2.6,0.9c0.6,0.6,0.9,1.6,0.9,2.9v6.7L276.8,140.3L276.8,140.3z"/>
		<path class="st0" d="M285.7,140.5c-0.7,0-1.3-0.1-1.8-0.4s-1-0.6-1.4-1.1h-0.1c0.1,0.6,0.1,1.2,0.1,1.7v4.2H281V130h1.3l0.2,1.4
			h0.1c0.4-0.6,0.9-1,1.4-1.2s1.1-0.4,1.8-0.4c1.4,0,2.4,0.5,3.2,1.4s1.1,2.2,1.1,3.9s-0.4,3-1.1,3.9S287.1,140.5,285.7,140.5
			L285.7,140.5z M285.5,131.1c-1,0-1.8,0.3-2.3,0.9s-0.7,1.5-0.7,2.8v0.4c0,1.4,0.2,2.5,0.7,3.1c0.5,0.6,1.2,0.9,2.3,0.9
			c0.9,0,1.6-0.4,2.1-1.1c0.5-0.7,0.8-1.7,0.8-3s-0.2-2.3-0.8-2.9C287.1,131.5,286.4,131.1,285.5,131.1L285.5,131.1z"/>
		<path class="st0" d="M292,127.2c0-0.4,0.1-0.6,0.3-0.8c0.2-0.2,0.4-0.2,0.7-0.2s0.5,0.1,0.6,0.2s0.3,0.4,0.3,0.8s-0.1,0.6-0.3,0.8
			c-0.2,0.2-0.4,0.3-0.6,0.3c-0.3,0-0.5-0.1-0.7-0.3C292.1,127.8,292,127.6,292,127.2z M293.7,140.3h-1.6V130h1.6V140.3z"/>
		<path class="st0" d="M300.5,140.5c-1.5,0-2.6-0.5-3.5-1.4c-0.8-0.9-1.2-2.2-1.2-3.9s0.4-3.1,1.2-4c0.8-0.9,2-1.4,3.5-1.4
			c0.5,0,1,0.1,1.5,0.2s0.9,0.2,1.2,0.4l-0.5,1.3c-0.3-0.1-0.7-0.2-1.1-0.3s-0.8-0.1-1.1-0.1c-2.1,0-3.1,1.3-3.1,4
			c0,1.3,0.2,2.2,0.8,2.9s1.3,1,2.3,1c0.9,0,1.7-0.2,2.6-0.6v1.4C302.4,140.3,301.5,140.5,300.5,140.5L300.5,140.5z"/>
		<path class="st0" d="M315.9,140.3l-0.3-1.5h-0.1c-0.5,0.6-1,1.1-1.5,1.3c-0.5,0.2-1.1,0.3-1.9,0.3c-1,0-1.8-0.3-2.4-0.8
			s-0.9-1.3-0.9-2.2c0-2.1,1.7-3.2,5-3.3l1.8-0.1v-0.6c0-0.8-0.2-1.4-0.5-1.8c-0.4-0.4-0.9-0.6-1.7-0.6c-0.9,0-1.8,0.3-2.9,0.8
			l-0.5-1.2c0.5-0.3,1.1-0.5,1.7-0.6c0.6-0.2,1.2-0.2,1.8-0.2c1.2,0,2.1,0.3,2.7,0.8s0.9,1.4,0.9,2.6v7H315.9L315.9,140.3z
			 M312.4,139.2c1,0,1.7-0.3,2.3-0.8s0.8-1.3,0.8-2.2v-0.9l-1.6,0.1c-1.2,0-2.1,0.2-2.7,0.6s-0.8,0.9-0.8,1.6c0,0.6,0.2,1,0.5,1.3
			C311.3,139,311.7,139.2,312.4,139.2L312.4,139.2z"/>
		<path class="st0" d="M326.6,140.3v-6.6c0-0.8-0.2-1.5-0.6-1.9c-0.4-0.4-1-0.6-1.8-0.6c-1.1,0-1.9,0.3-2.4,0.9s-0.8,1.5-0.8,2.9
			v5.4h-1.6V130h1.3l0.2,1.4h0.1c0.3-0.5,0.8-0.9,1.3-1.2c0.6-0.3,1.2-0.4,1.9-0.4c1.2,0,2.2,0.3,2.8,0.9s0.9,1.6,0.9,2.9v6.7
			L326.6,140.3L326.6,140.3z"/>
		<path class="st0" d="M337.8,138.9L337.8,138.9c-0.8,1-1.9,1.6-3.4,1.6c-1.4,0-2.4-0.5-3.2-1.4s-1.1-2.2-1.1-3.9s0.4-3,1.1-3.9
			s1.8-1.4,3.2-1.4s2.5,0.5,3.3,1.5h0.1l-0.1-0.7l0-0.7v-4.2h1.6v14.6H338L337.8,138.9L337.8,138.9z M334.6,139.2
			c1.1,0,1.9-0.3,2.4-0.9c0.5-0.6,0.7-1.5,0.7-2.8v-0.3c0-1.5-0.2-2.5-0.7-3.1c-0.5-0.6-1.3-0.9-2.4-0.9c-0.9,0-1.6,0.4-2.1,1.1
			c-0.5,0.7-0.7,1.7-0.7,3s0.2,2.3,0.7,3S333.7,139.2,334.6,139.2L334.6,139.2z"/>
		<path class="st0" d="M355.6,130.6c0,1.4-0.5,2.5-1.4,3.2s-2.3,1.1-4.1,1.1h-1.6v5.4h-1.6v-13.7h3.6
			C353.9,126.6,355.6,127.9,355.6,130.6L355.6,130.6z M348.5,133.5h1.4c1.4,0,2.4-0.2,3.1-0.7s1-1.2,1-2.2c0-0.9-0.3-1.6-0.9-2
			c-0.6-0.4-1.5-0.7-2.8-0.7h-1.8L348.5,133.5L348.5,133.5z"/>
		<path class="st0" d="M363.6,140.3l-0.3-1.5h-0.1c-0.5,0.6-1,1.1-1.5,1.3c-0.5,0.2-1.1,0.3-1.9,0.3c-1,0-1.8-0.3-2.4-0.8
			s-0.9-1.3-0.9-2.2c0-2.1,1.7-3.2,5-3.3l1.8-0.1v-0.6c0-0.8-0.2-1.4-0.5-1.8c-0.4-0.4-0.9-0.6-1.7-0.6c-0.9,0-1.8,0.3-2.9,0.8
			l-0.5-1.2c0.5-0.3,1.1-0.5,1.7-0.6c0.6-0.2,1.2-0.2,1.8-0.2c1.2,0,2.1,0.3,2.7,0.8s0.9,1.4,0.9,2.6v7H363.6L363.6,140.3z
			 M360.1,139.2c1,0,1.7-0.3,2.3-0.8s0.8-1.3,0.8-2.2v-0.9l-1.6,0.1c-1.2,0-2.1,0.2-2.7,0.6s-0.8,0.9-0.8,1.6c0,0.6,0.2,1,0.5,1.3
			C359,139,359.5,139.2,360.1,139.2L360.1,139.2z"/>
		<path class="st0" d="M372.1,129.8c0.5,0,0.9,0,1.2,0.1l-0.2,1.4c-0.4-0.1-0.8-0.1-1.1-0.1c-0.8,0-1.5,0.3-2.1,1
			c-0.6,0.7-0.9,1.5-0.9,2.5v5.5h-1.6V130h1.3l0.2,1.9h0.1c0.4-0.7,0.8-1.2,1.4-1.6S371.4,129.8,372.1,129.8L372.1,129.8z"/>
		<path class="st0" d="M380.9,140.3l-0.3-1.5h-0.1c-0.5,0.6-1,1.1-1.5,1.3c-0.5,0.2-1.1,0.3-1.9,0.3c-1,0-1.8-0.3-2.4-0.8
			s-0.9-1.3-0.9-2.2c0-2.1,1.7-3.2,5-3.3l1.8-0.1v-0.6c0-0.8-0.2-1.4-0.5-1.8c-0.4-0.4-0.9-0.6-1.7-0.6c-0.9,0-1.8,0.3-2.9,0.8
			l-0.5-1.2c0.5-0.3,1.1-0.5,1.7-0.6c0.6-0.2,1.2-0.2,1.8-0.2c1.2,0,2.1,0.3,2.7,0.8s0.9,1.4,0.9,2.6v7H380.9L380.9,140.3z
			 M377.4,139.2c1,0,1.7-0.3,2.3-0.8s0.8-1.3,0.8-2.2v-0.9l-1.6,0.1c-1.2,0-2.1,0.2-2.7,0.6s-0.8,0.9-0.8,1.6c0,0.6,0.2,1,0.5,1.3
			C376.3,139,376.8,139.2,377.4,139.2L377.4,139.2z"/>
		<path class="st0" d="M386.2,140.3h-1.6v-14.6h1.6V140.3z"/>
		<path class="st0" d="M387.6,130h1.7l2.2,5.9c0.5,1.3,0.8,2.3,0.9,2.9h0.1c0.1-0.3,0.2-0.9,0.5-1.6s1.1-3.1,2.5-7.1h1.7l-4.4,11.7
			c-0.4,1.2-1,2-1.5,2.5c-0.6,0.5-1.3,0.7-2.1,0.7c-0.5,0-1-0.1-1.4-0.2v-1.2c0.3,0.1,0.7,0.1,1.1,0.1c1.1,0,1.8-0.6,2.3-1.8
			l0.6-1.5L387.6,130L387.6,130z"/>
		<path class="st0" d="M411.8,140.3v-6.7c0-0.8-0.2-1.4-0.5-1.9c-0.4-0.4-0.9-0.6-1.6-0.6c-1,0-1.7,0.3-2.1,0.8
			c-0.5,0.6-0.7,1.4-0.7,2.6v5.7h-1.6v-6.7c0-0.8-0.2-1.4-0.5-1.9s-0.9-0.6-1.6-0.6c-1,0-1.7,0.3-2.1,0.9c-0.5,0.6-0.7,1.5-0.7,2.9
			v5.4h-1.6V130h1.3l0.2,1.4h0.1c0.3-0.5,0.7-0.9,1.2-1.2s1.1-0.4,1.8-0.4c1.6,0,2.7,0.6,3.1,1.8h0.1c0.3-0.5,0.8-1,1.3-1.3
			c0.6-0.3,1.2-0.5,2-0.5c1.2,0,2,0.3,2.6,0.9c0.6,0.6,0.9,1.6,0.9,2.9v6.7L411.8,140.3L411.8,140.3z"/>
		<path class="st0" d="M420.7,140.5c-0.7,0-1.3-0.1-1.8-0.4s-1-0.6-1.4-1.1h-0.1c0.1,0.6,0.1,1.2,0.1,1.7v4.2h-1.6V130h1.3l0.2,1.4
			h0.1c0.4-0.6,0.9-1,1.4-1.2s1.1-0.4,1.8-0.4c1.4,0,2.4,0.5,3.2,1.4s1.1,2.2,1.1,3.9s-0.4,3-1.1,3.9S422,140.5,420.7,140.5
			L420.7,140.5z M420.4,131.1c-1,0-1.8,0.3-2.3,0.9s-0.7,1.5-0.7,2.8v0.4c0,1.4,0.2,2.5,0.7,3.1c0.5,0.6,1.2,0.9,2.3,0.9
			c0.9,0,1.6-0.4,2.1-1.1c0.5-0.7,0.8-1.7,0.8-3s-0.2-2.3-0.8-2.9C422.1,131.5,421.4,131.1,420.4,131.1L420.4,131.1z"/>
		<path class="st0" d="M426.9,127.2c0-0.4,0.1-0.6,0.3-0.8c0.2-0.2,0.4-0.2,0.7-0.2s0.5,0.1,0.6,0.2s0.3,0.4,0.3,0.8
			s-0.1,0.6-0.3,0.8c-0.2,0.2-0.4,0.3-0.6,0.3c-0.3,0-0.5-0.1-0.7-0.3C427,127.8,426.9,127.6,426.9,127.2z M428.6,140.3h-1.6V130
			h1.6V140.3z"/>
		<path class="st0" d="M435.4,140.5c-1.5,0-2.6-0.5-3.5-1.4c-0.8-0.9-1.2-2.2-1.2-3.9s0.4-3.1,1.2-4c0.8-0.9,2-1.4,3.5-1.4
			c0.5,0,1,0.1,1.5,0.2s0.9,0.2,1.2,0.4l-0.5,1.3c-0.3-0.1-0.7-0.2-1.1-0.3s-0.8-0.1-1.1-0.1c-2.1,0-3.1,1.3-3.1,4
			c0,1.3,0.2,2.2,0.8,2.9s1.3,1,2.3,1c0.9,0,1.7-0.2,2.6-0.6v1.4C437.3,140.3,436.4,140.5,435.4,140.5L435.4,140.5z"/>
		<path class="st0" d="M453.4,130.6c0,1.4-0.5,2.5-1.4,3.2s-2.3,1.1-4.1,1.1h-1.6v5.4h-1.6v-13.7h3.6
			C451.7,126.6,453.4,127.9,453.4,130.6L453.4,130.6z M446.3,133.5h1.4c1.4,0,2.4-0.2,3.1-0.7s1-1.2,1-2.2c0-0.9-0.3-1.6-0.9-2
			c-0.6-0.4-1.5-0.7-2.8-0.7h-1.8L446.3,133.5L446.3,133.5z"/>
		<path class="st0" d="M461.5,140.3l-0.3-1.5h-0.1c-0.5,0.6-1,1.1-1.5,1.3c-0.5,0.2-1.1,0.3-1.9,0.3c-1,0-1.8-0.3-2.4-0.8
			s-0.9-1.3-0.9-2.2c0-2.1,1.7-3.2,5-3.3l1.8-0.1v-0.6c0-0.8-0.2-1.4-0.5-1.8c-0.4-0.4-0.9-0.6-1.7-0.6c-0.9,0-1.8,0.3-2.9,0.8
			l-0.5-1.2c0.5-0.3,1.1-0.5,1.7-0.6c0.6-0.2,1.2-0.2,1.8-0.2c1.2,0,2.1,0.3,2.7,0.8s0.9,1.4,0.9,2.6v7H461.5L461.5,140.3z
			 M458,139.2c1,0,1.7-0.3,2.3-0.8s0.8-1.3,0.8-2.2v-0.9l-1.6,0.1c-1.2,0-2.1,0.2-2.7,0.6s-0.8,0.9-0.8,1.6c0,0.6,0.2,1,0.5,1.3
			C456.9,139,457.3,139.2,458,139.2L458,139.2z"/>
		<path class="st0" d="M469.9,129.8c0.5,0,0.9,0,1.2,0.1l-0.2,1.4c-0.4-0.1-0.8-0.1-1.1-0.1c-0.8,0-1.5,0.3-2.1,1
			c-0.6,0.7-0.9,1.5-0.9,2.5v5.5h-1.6V130h1.3l0.2,1.9h0.1c0.4-0.7,0.8-1.2,1.4-1.6S469.3,129.8,469.9,129.8L469.9,129.8z"/>
		<path class="st0" d="M476.6,139.2c0.3,0,0.5,0,0.8-0.1c0.3,0,0.5-0.1,0.6-0.1v1.2c-0.2,0.1-0.4,0.1-0.8,0.2s-0.6,0.1-0.9,0.1
			c-2,0-3-1.1-3-3.1v-6.1h-1.5v-0.8l1.5-0.6l0.7-2.2h0.9v2.4h3v1.2h-3v6.1c0,0.6,0.1,1.1,0.4,1.4C475.7,139,476.1,139.2,476.6,139.2
			L476.6,139.2z"/>
		<path class="st0" d="M486.7,140.3v-6.6c0-0.8-0.2-1.5-0.6-1.9c-0.4-0.4-1-0.6-1.8-0.6c-1.1,0-1.9,0.3-2.4,0.9s-0.8,1.5-0.8,2.9
			v5.4h-1.6V130h1.3l0.2,1.4h0.1c0.3-0.5,0.8-0.9,1.3-1.2c0.6-0.3,1.2-0.4,1.9-0.4c1.2,0,2.2,0.3,2.8,0.9s0.9,1.6,0.9,2.9v6.7
			L486.7,140.3L486.7,140.3z"/>
		<path class="st0" d="M495.2,140.5c-1.5,0-2.7-0.5-3.6-1.4s-1.3-2.2-1.3-3.9s0.4-3,1.2-3.9c0.8-1,1.9-1.5,3.3-1.5
			c1.3,0,2.3,0.4,3.1,1.3s1.1,2,1.1,3.4v1h-7.1c0,1.2,0.3,2.1,0.9,2.8c0.6,0.6,1.4,0.9,2.5,0.9c1.1,0,2.2-0.2,3.3-0.7v1.4
			c-0.5,0.2-1.1,0.4-1.6,0.5S495.9,140.5,495.2,140.5L495.2,140.5z M494.8,131.1c-0.8,0-1.5,0.3-2,0.8c-0.5,0.5-0.8,1.3-0.9,2.2h5.4
			c0-1-0.2-1.7-0.7-2.3C496.2,131.4,495.6,131.1,494.8,131.1L494.8,131.1z"/>
		<path class="st0" d="M505.7,129.8c0.5,0,0.9,0,1.2,0.1l-0.2,1.4c-0.4-0.1-0.8-0.1-1.1-0.1c-0.8,0-1.5,0.3-2.1,1
			c-0.6,0.7-0.9,1.5-0.9,2.5v5.5H501V130h1.3l0.2,1.9h0.1c0.4-0.7,0.8-1.2,1.4-1.6S505.1,129.8,505.7,129.8L505.7,129.8z"/>
	</g>
	<g>
		<path class="st0" d="M433.6,56.6c0-3.1,2.5-5.7,5.7-5.7s5.7,2.5,5.7,5.7s-2.5,5.7-5.7,5.7S433.6,59.7,433.6,56.6"/>
		<path class="st0" d="M263.6,41.2c0,6.5-1.8,11.6-5.3,15.1c-3.5,3.5-8.5,5.3-14.8,5.3h-12.4V22.4h13.2c6.1,0,10.9,1.6,14.2,4.8
			C261.9,30.5,263.6,35.1,263.6,41.2 M252.9,41.6c0-3.6-0.7-6.2-2.1-8c-1.4-1.7-3.5-2.6-6.3-2.6h-3v21.9h2.3c3.1,0,5.4-0.9,6.9-2.8
			S252.9,45.4,252.9,41.6"/>
		<rect x="297.9" y="22.3" class="st0" width="9.9" height="39.3"/>
		<path class="st0" d="M340.1,47c0,4.8-1.2,8.5-3.8,11.2s-6,4-10.5,4s-7.8-1.4-10.3-4.1s-3.8-6.4-3.8-11.1s1.2-8.5,3.8-11.1
			c2.5-2.6,6-4,10.6-4c2.8,0,5.3,0.6,7.4,1.8s3.8,3,5,5.2C339.5,41.2,340.1,43.9,340.1,47 M321.6,46.9c0,2.5,0.3,4.4,1,5.7
			c0.7,1.3,1.8,2,3.3,2s2.6-0.7,3.2-2s0.9-3.2,0.9-5.7s-0.3-4.4-1-5.7c-0.6-1.3-1.7-1.9-3.3-1.9s-2.6,0.6-3.2,1.9
			C321.9,42.5,321.6,44.4,321.6,46.9"/>
		<rect x="344" y="32.4" class="st0" width="9.9" height="29.2"/>
		<rect x="344" y="22.3" class="st0" width="9.9" height="6.6"/>
		<path class="st0" d="M373.8,54.2c1.3,0,2.9-0.3,4.8-1v7.3c-1.3,0.6-2.6,1-3.8,1.2s-2.6,0.4-4.2,0.4c-3.3,0-5.7-0.8-7.1-2.5
			s-2.2-4.2-2.2-7.7v-12h-3.5v-7.6h3.5v-7.5l9.9-1.7v9.2h6.3v7.6h-6.3v11.4C371.1,53.2,372,54.1,373.8,54.2"/>
		<path class="st0" d="M396.6,54.2c1.3,0,2.9-0.3,4.8-1v7.3c-1.3,0.6-2.6,1-3.8,1.2s-2.6,0.4-4.2,0.4c-3.3,0-5.7-0.8-7.1-2.5
			S384,55.4,384,52v-12h-3.5v-7.6h3.5v-7.6l9.9-1.6v9.2h6.3v7.6h-6.3v11.4C393.9,53.2,394.8,54.2,396.6,54.2"/>
		<path class="st0" d="M427.7,35.3c-2.3-2.3-5.7-3.4-10-3.4c-4.5,0-8,1.3-10.4,4c-2.4,2.6-3.6,6.4-3.6,11.4s1.3,8.5,3.9,11
			c2.6,2.6,6.3,3.9,11.1,3.9c2.3,0,4.2-0.2,5.9-0.5s3.2-0.9,4.8-1.7l-1.5-6.6c-1.1,0.5-2.2,0.8-3.2,1c-1.5,0.3-3,0.5-4.8,0.5
			c-1.9,0-3.4-0.5-4.5-1.4s-1.7-2.2-1.8-3.8h17.6v-4.5C431.2,40.9,430,37.6,427.7,35.3 M413.8,43.4c0.1-1.6,0.6-2.8,1.4-3.5
			s1.8-1.1,2.9-1.1c1.3,0,2.3,0.4,3,1.3c0.8,0.8,1.1,2,1.2,3.4L413.8,43.4L413.8,43.4z"/>
		<path class="st0" d="M290.6,35.3c-2.3-2.3-5.7-3.4-10-3.4c-4.5,0-8,1.3-10.4,4c-2.4,2.6-3.6,6.4-3.6,11.4s1.3,8.5,3.9,11
			c2.6,2.6,6.3,3.9,11.1,3.9c2.3,0,4.2-0.2,5.9-0.5s3.2-0.9,4.8-1.7l-1.5-6.6c-1.1,0.5-2.2,0.8-3.2,1c-1.5,0.3-3,0.5-4.8,0.5
			c-1.9,0-3.4-0.5-4.5-1.4s-1.7-2.2-1.8-3.8h17.6v-4.5C294.1,40.9,292.9,37.6,290.6,35.3 M276.7,43.4c0.1-1.6,0.6-2.8,1.4-3.5
			s1.8-1.1,2.9-1.1c1.3,0,2.3,0.4,3,1.3c0.8,0.8,1.1,2,1.2,3.4L276.7,43.4L276.7,43.4z"/>
	</g>
	<rect x="189.3" class="st0" width="1.9" height="84.5"/>
	<rect x="483.2" class="st0" width="1.9" height="84.5"/>
	<g>
		<path class="st0" d="M541.2,49.5c1.7,0,3.5-0.1,5.2-0.3c-9.8-2.4-12.9-11.3-6.8-21.9S559,8.2,571.1,6.4c-1.4-0.3-3-0.5-4.7-0.6
			C553.1,5.5,536.6,15,529.7,27S527.9,49.2,541.2,49.5L541.2,49.5z"/>
		<path class="st0" d="M583.3,71.5c0.9-1.4,1.7-3,2.4-4.7c-7,7.2-16.4,5.2-22.3-5.4c-5.9-10.6-6.4-26.4-1.6-37.8c-1,1-2,2.3-2.9,3.7
			c-7.2,11.2-7.5,30.2-0.8,42.4C564.8,82,576.1,82.8,583.3,71.5L583.3,71.5L583.3,71.5z"/>
		<path class="st0" d="M623.7,45.4c-0.8-1.5-1.8-3-2.9-4.4c2.8,9.6-3.4,16.9-15.5,16.9s-26.2-7.2-33.8-16.9c0.4,1.4,1,2.9,1.8,4.4
			c6.4,11.7,22.8,21.2,36.7,21.2C623.9,66.7,630,57.2,623.7,45.4L623.7,45.4z"/>
	</g>
	<g id="Olympic_rings">
		<path id="Red_ring" class="st0" d="M158.1,30.6c0,13.8-11.2,25-25,25c-13.1,0-23.8-10-24.9-22.8c1.5,0.2,2.9,0.5,4.3,0.9
			c1.5,10,10.1,17.7,20.6,17.7c11.5,0,20.8-9.3,20.8-20.8s-9.3-20.8-20.8-20.8s-20.1,8.6-20.8,19.5c-1.3-0.3-2.7-0.6-4.1-0.7
			c1-12.9,11.8-23,24.9-23C146.9,5.6,158.1,16.8,158.1,30.6z"/>
		<path id="Green_ring" class="st0" d="M106.1,32.6c10.4,0,19.1,7.7,20.6,17.7c1.4,0.5,2.8,0.8,4.3,0.9
			c-1.1-12.8-11.8-22.8-24.9-22.8c-0.7,0-1.4,0-2.2,0.1c0.1,0.7,0.1,1.3,0.1,2c0,0.7,0,1.5-0.1,2.2
			C104.6,32.7,105.4,32.6,106.1,32.6z M126.8,54.7c-0.7,10.9-9.7,19.5-20.8,19.5s-20.8-9.3-20.8-20.8c0-9.2,6-17,14.3-19.8
			c0.2-1,0.2-2,0.2-3.1c0-0.4,0-0.9,0-1.3c-10.8,2.8-18.7,12.6-18.7,24.2c0,13.8,11.2,25,25,25s23.9-10.1,24.9-23
			C129.6,55.3,128.2,55.1,126.8,54.7L126.8,54.7z"/>
		<path id="Black_ring" class="st0" d="M79.1,5.6c-13.1,0-23.9,10.1-24.9,23c1.4,0.1,2.8,0.4,4.1,0.7C58.9,18.4,68,9.8,79.1,9.8
			s20.8,9.3,20.8,20.8c0,9.2-6,17.1-14.3,19.8c-0.2,1-0.2,2-0.2,3.1c0,0.4,0,0.9,0,1.3C96.1,51.9,104,42.2,104,30.6
			C104,16.8,92.8,5.6,79.1,5.6L79.1,5.6z M79.1,51.4c-10.4,0-19.1-7.7-20.6-17.7c-1.4-0.5-2.8-0.8-4.3-0.9
			C55.3,45.5,66,55.5,79.1,55.5c0.7,0,1.4,0,2.2-0.1c-0.1-0.7-0.1-1.3-0.1-2c0-0.7,0-1.5,0.1-2.2C80.5,51.3,79.8,51.4,79.1,51.4z"/>
		<path id="Yellow_ring" class="st0" d="M49.8,32.8c0.1-0.7,0.1-1.5,0.1-2.2c0-0.7,0-1.3-0.1-2c0.7-0.1,1.4-0.1,2.2-0.1
			c13,0,23.8,10,24.9,22.8c-1.5-0.2-2.9-0.5-4.3-0.9c-1.5-10-10.2-17.7-20.6-17.7C51.3,32.6,50.5,32.7,49.8,32.8L49.8,32.8z
			 M76.9,55.4c-1,12.9-11.8,23-24.9,23c-13.8,0-25-11.2-25-25c0-11.6,7.9-21.4,18.7-24.2c0,0.4,0,0.9,0,1.3c0,1.1-0.1,2.1-0.2,3.1
			c-8.3,2.7-14.3,10.5-14.3,19.8c0,11.5,9.3,20.8,20.8,20.8s20.1-8.6,20.8-19.5C74.1,55.1,75.5,55.3,76.9,55.4L76.9,55.4z"/>
		<path id="Blue_ring" class="st0" d="M49.9,30.6c0-13.8-11.2-25-25-25S0,16.8,0,30.6s11.2,25,25,25c0.7,0,1.5,0,2.2-0.1
			c0-0.7-0.1-1.3-0.1-2c0-0.7,0-1.5,0.1-2.2c-0.7,0.1-1.4,0.1-2.2,0.1C13.5,51.4,4.2,42,4.2,30.6S13.5,9.8,25,9.8
			s20.8,9.3,20.8,20.8c0,9.2-6,17.1-14.3,19.8c-0.1,1-0.2,2-0.2,3.1c0,0.4,0,0.9,0,1.3C42,51.9,49.9,42.2,49.9,30.6L49.9,30.6z"/>
	</g>
</g>
</svg>
