<?xml version="1.0" encoding="utf-8"?>
<!-- Generator: Adobe Illustrator 25.2.2, SVG Export Plug-In . SVG Version: 6.00 Build 0)  -->
<svg version="1.1" id="Layer_1" xmlns="http://www.w3.org/2000/svg" xmlns:xlink="http://www.w3.org/1999/xlink" x="0px" y="0px"
	 viewBox="0 0 87 40" style="enable-background:new 0 0 87 40;" xml:space="preserve">
<style type="text/css">
	.st0{fill:#FFFFFF;}
</style>
<path id="Olympic_rings_1_" class="st0" d="M73.2,0C66,0,60.1,5.6,59.5,12.6c-0.4-0.1-0.8-0.1-1.2-0.1s-0.8,0-1.2,0.1
	C56.7,5.6,50.7,0,43.5,0S30.4,5.6,29.8,12.6c-0.4-0.1-0.8-0.1-1.2-0.1c-0.4,0-0.8,0-1.2,0.1C26.9,5.6,21,0,13.8,0
	C6.2,0,0,6.2,0,13.7s6.2,13.7,13.8,13.7c0.4,0,0.8,0,1.2-0.1c0.5,7,6.5,12.6,13.7,12.6s13.1-5.6,13.7-12.6c0.4,0.1,0.8,0.1,1.2,0.1
	s0.8,0,1.2-0.1c0.5,7,6.5,12.6,13.7,12.6s13.1-5.6,13.7-12.6c0.4,0.1,0.8,0.1,1.2,0.1c7.6,0,13.8-6.2,13.8-13.7S80.8,0,73.2,0z
	 M2.3,13.7c0-6.3,5.1-11.4,11.5-11.4C19.9,2.3,24.8,7,25.2,13c-5.5,1.4-9.7,6.2-10.2,12.1c-0.4,0.1-0.8,0.1-1.2,0.1
	C7.4,25.2,2.3,20,2.3,13.7z M25,15.4c-0.6,4.3-3.7,7.8-7.8,9.1C17.9,20.3,21,16.8,25,15.4z M28.6,37.7c-6.1,0-11.1-4.8-11.4-10.7
	c5.5-1.4,9.7-6.2,10.2-12.1c0.4-0.1,0.8-0.1,1.2-0.1c0.4,0,0.8,0,1.2,0.1C30.3,20.8,34.5,25.5,40,27C39.7,33,34.7,37.7,28.6,37.7z
	 M32.2,15.4c4.1,1.3,7.1,4.9,7.8,9.1C35.9,23.2,32.8,19.7,32.2,15.4z M42.3,25.1c-0.5-5.9-4.7-10.6-10.2-12.1
	c0.4-6,5.3-10.7,11.4-10.7S54.6,7,54.9,13c-5.5,1.4-9.7,6.2-10.2,12.1c-0.4,0.1-0.8,0.1-1.2,0.1S42.7,25.1,42.3,25.1z M54.8,15.4
	c-0.6,4.3-3.7,7.8-7.8,9.1C47.7,20.3,50.8,16.8,54.8,15.4z M58.4,37.7C52.3,37.7,47.3,33,47,27c5.5-1.4,9.7-6.2,10.2-12.1
	c0.4-0.1,0.8-0.1,1.2-0.1s0.8,0,1.2,0.1c0.5,5.9,4.7,10.6,10.2,12.1C69.4,33,64.5,37.7,58.4,37.7z M62,15.4c4.1,1.3,7.1,4.9,7.8,9.1
	C65.7,23.2,62.6,19.7,62,15.4z M73.2,25.2c-0.4,0-0.8,0-1.2-0.1c-0.5-5.9-4.7-10.6-10.2-12.1c0.4-6,5.3-10.7,11.4-10.7
	c6.3,0,11.5,5.1,11.5,11.4C84.7,20,79.6,25.2,73.2,25.2z"/>
</svg>
