<?xml version="1.0" encoding="utf-8"?>
<svg width="56px" height="56px" viewbox="0 0 56 56" version="1.1" xmlns:xlink="http://www.w3.org/1999/xlink" xmlns="http://www.w3.org/2000/svg">
  <defs>
    <path d="M0 0L56 0L56 56L0 56L0 0Z" id="path_1" />
    <clipPath id="mask_1">
      <use xlink:href="#path_1" />
    </clipPath>
  </defs>
  <g id="search">
    <path d="M0 0L56 0L56 56L0 56L0 0Z" id="Background" fill="none" fill-rule="evenodd" stroke="none" />
    <g clip-path="url(#mask_1)">
      <path d="M26.3381 6.31435C23.9764 4.72031 21.1954 3.86151 18.3461 3.84632C16.4463 3.83872 14.5637 4.20605 12.806 4.92724C11.0484 5.64843 9.45032 6.70932 8.10342 8.0491C6.75645 9.3889 5.68707 10.9813 4.95654 12.7351C4.22601 14.4889 3.84868 16.3696 3.84616 18.2694C3.84621 21.1187 4.6902 23.9042 6.27165 26.2744C7.85312 28.6445 10.1011 30.4932 12.7321 31.5871C15.3631 32.6809 18.2592 32.971 21.0549 32.4207C23.8505 31.8704 26.4206 30.5043 28.4407 28.4949C30.4608 26.4855 31.8405 23.9228 32.4057 21.1301C32.9709 18.3373 32.6962 15.4398 31.6164 12.803C30.5365 10.1662 28.6998 7.9084 26.3381 6.31435L26.3381 6.31435ZM8.17542 3.04162C11.1899 1.04345 14.7296 -0.0150676 18.3461 0.000162363C23.1781 0.0205123 27.8052 1.95427 31.2147 5.37822C34.6243 8.8022 36.5385 13.4374 36.5385 18.2694C36.5384 21.886 35.465 25.4212 33.4541 28.4272C33.1574 28.8707 32.8423 29.2997 32.5099 29.7133L49.5137 46.7171C50.2647 47.4681 50.2647 48.6857 49.5137 49.4367C48.7627 50.1878 47.5451 50.1878 46.7941 49.4367L29.7984 32.4411C28.4273 33.5565 26.8942 34.4732 25.2427 35.1552C21.8999 36.5357 18.2227 36.8929 14.6767 36.1818C11.1307 35.4706 7.87562 33.7229 5.32372 31.1602C2.77181 28.5975 1.03793 25.3351 0.341718 21.7862C-0.354492 18.2372 0.0182879 14.5615 1.41285 11.2246C2.80741 7.8877 5.16099 5.03979 8.17542 3.04162L8.17542 3.04162Z" transform="translate(2.996582 3)" id="Shape" fill="#FFFFFF" fill-rule="evenodd" stroke="none" />
    </g>
  </g>
</svg>